<svg width="12" height="12" viewBox="0 0 12 12" fill="none" xmlns="http://www.w3.org/2000/svg">
<path d="M11.3615 4.60447L8.07565 4.12692L6.60678 1.14907C6.56667 1.06753 6.50066 1.00153 6.41913 0.961413C6.21465 0.860469 5.96618 0.944589 5.86394 1.14907L4.39507 4.12692L1.1092 4.60447C1.01861 4.61741 0.935786 4.66012 0.872372 4.72482C0.795708 4.80362 0.753463 4.90963 0.754919 5.01956C0.756375 5.12949 0.801413 5.23434 0.880137 5.31108L3.2575 7.62891L2.69584 10.9018C2.68267 10.978 2.69109 11.0563 2.72016 11.1279C2.74923 11.1995 2.79777 11.2615 2.86029 11.3069C2.9228 11.3523 2.99679 11.3793 3.07386 11.3848C3.15093 11.3903 3.228 11.374 3.29633 11.338L6.23536 9.79274L9.17439 11.338C9.25463 11.3807 9.34781 11.3949 9.43711 11.3794C9.66229 11.3406 9.81371 11.127 9.77488 10.9018L9.21322 7.62891L11.5906 5.31108C11.6553 5.24766 11.698 5.16484 11.7109 5.07425C11.7459 4.84777 11.588 4.63811 11.3615 4.60447V4.60447Z" fill="#FFC416"/>
</svg>
